HIERARCHY
ROOT joint_0
{
	OFFSET 0.000000 0.000000 0.000000
	CHANNELS 6 Xposition Yposition Zposition Zrotation Yrotation Xrotation 
	JOINT joint_1
	{
		OFFSET 0.587158 0.057678 95.682007
		CHANNELS 3 Zrotation Yrotation Xrotation
		JOINT joint_2
		{
			OFFSET -7.116699 -0.219910 87.157959
			CHANNELS 3 Zrotation Yrotation Xrotation
			JOINT joint_3
			{
				OFFSET -5.892822 -0.290222 87.151001
				CHANNELS 3 Zrotation Yrotation Xrotation
				JOINT joint_4
				{
					OFFSET 5.544678 -0.099609 123.768066
					CHANNELS 3 Zrotation Yrotation Xrotation
					JOINT joint_5
					{
						OFFSET 41.981201 4.519775 84.257935
						CHANNELS 3 Zrotation Yrotation Xrotation
						End Site
						{
							OFFSET 0.000000 0.000000 0.000000
						}
					}
				}
				JOINT joint_6
				{
					OFFSET 3.940918 -26.976501 69.308105
					CHANNELS 3 Zrotation Yrotation Xrotation
					JOINT joint_7
					{
						OFFSET 4.776123 -152.592468 -16.842041
						CHANNELS 3 Zrotation Yrotation Xrotation
						JOINT joint_8
						{
							OFFSET 54.421875 -30.424072 -248.864014
							CHANNELS 3 Zrotation Yrotation Xrotation
							JOINT joint_9
							{
								OFFSET 42.120117 -33.387878 -236.524963
								CHANNELS 3 Zrotation Yrotation Xrotation
								End Site
								{
									OFFSET 0.000000 0.000000 0.000000
								}
							}
						}
					}
				}
				JOINT joint_10
				{
					OFFSET 2.312012 26.904114 69.425049
					CHANNELS 3 Zrotation Yrotation Xrotation
					JOINT joint_11
					{
						OFFSET 0.971436 152.197815 -20.626953
						CHANNELS 3 Zrotation Yrotation Xrotation
						JOINT joint_12
						{
							OFFSET 49.954102 28.991455 -249.970093
							CHANNELS 3 Zrotation Yrotation Xrotation
							JOINT joint_13
							{
								OFFSET 48.146973 19.598389 -236.919922
								CHANNELS 3 Zrotation Yrotation Xrotation
								End Site
								{
									OFFSET 0.000000 0.000000 0.000000
								}
							}
						}
					}
				}
			}
		}
	}
	JOINT joint_14
	{
		OFFSET 16.305664 -89.442932 -108.224976
		CHANNELS 3 Zrotation Yrotation Xrotation
		JOINT joint_15
		{
			OFFSET -22.282471 13.437134 -412.904968
			CHANNELS 3 Zrotation Yrotation Xrotation
			JOINT joint_16
			{
				OFFSET -45.426025 14.484802 -445.892029
				CHANNELS 3 Zrotation Yrotation Xrotation
				JOINT joint_17
				{
					OFFSET 173.389404 -9.944031 -76.473001
					CHANNELS 3 Zrotation Yrotation Xrotation
					End Site
					{
						OFFSET 0.000000 0.000000 0.000000
					}
				}
			}
		}
	}
	JOINT joint_18
	{
		OFFSET 13.392822 89.408875 -108.653992
		CHANNELS 3 Zrotation Yrotation Xrotation
		JOINT joint_19
		{
			OFFSET -29.032959 24.483521 -411.977966
			CHANNELS 3 Zrotation Yrotation Xrotation
			JOINT joint_20
			{
				OFFSET -30.530029 28.986328 -446.453018
				CHANNELS 3 Zrotation Yrotation Xrotation
				JOINT joint_21
				{
					OFFSET 170.330078 33.400757 -76.698997
					CHANNELS 3 Zrotation Yrotation Xrotation
					End Site
					{
						OFFSET 0.000000 0.000000 0.000000
					}
				}
			}
		}
	}
}
MOTION
Frames: 10
Frame Time: 0.016667
-2651.496582 837.111145 1064.603027 -3.209968 2.519918 0.048922 0.370167 -1.636658 0.219104 0.359738 0.269790 -0.025141 0.361486 -0.296912 0.021294 -2.457794 -10.198711 6.267068 0.000000 0.000000 0.000000 1.982962 3.068937 1.072923 -0.405468 3.299408 -0.025730 1.052709 -3.890585 2.821322 0.000000 0.000000 0.000000 0.624897 2.734435 -1.690799 0.524042 2.708472 0.687361 -0.727684 -2.807223 -2.463893 0.000000 0.000000 0.000000 -4.904660 -3.035421 -1.698140 -4.907256 -0.642786 -0.635376 -4.737815 0.591756 -2.045254 0.000000 0.000000 0.000000 1.732176 -5.459550 -1.144612 1.902534 -0.061033 0.909713 2.108457 2.600429 0.437245 0.000000 0.000000 0.000000 
-2651.481201 836.932800 1064.582031 -3.200549 2.513433 0.050404 0.367420 -1.647481 0.230309 0.355949 0.270630 -0.027328 0.357950 -0.297285 0.022880 -2.454233 -10.192619 6.258433 0.000000 0.000000 0.000000 1.986512 3.063734 1.082303 -0.413229 3.293937 -0.062148 1.052886 -3.887921 2.824379 0.000000 0.000000 0.000000 0.628133 2.741976 -1.718204 0.529264 2.716030 0.710285 -0.727141 -2.805485 -2.461748 0.000000 0.000000 0.000000 -4.909164 -3.037426 -1.693427 -4.910861 -0.618543 -0.631022 -4.741769 0.575725 -2.047998 0.000000 0.000000 0.000000 1.728172 -5.449028 -1.129478 1.899189 -0.067205 0.902788 2.105824 2.609465 0.434296 0.000000 0.000000 0.000000 
-2651.471924 836.748596 1064.562012 -3.190337 2.505526 0.051753 0.364179 -1.656652 0.240712 0.351653 0.271101 -0.030342 0.354011 -0.297760 0.025168 -2.451642 -10.187750 6.252081 0.000000 0.000000 0.000000 1.989563 3.058021 1.090924 -0.420817 3.287931 -0.097748 1.053971 -3.888382 2.830093 0.000000 0.000000 0.000000 0.632655 2.750265 -1.743375 0.535119 2.724239 0.734806 -0.727795 -2.810534 -2.462874 0.000000 0.000000 0.000000 -4.913772 -3.038183 -1.689925 -4.914788 -0.593379 -0.623999 -4.745823 0.557175 -2.050939 0.000000 0.000000 0.000000 1.723853 -5.436782 -1.111602 1.895854 -0.074157 0.892095 2.102950 2.617867 0.431364 0.000000 0.000000 0.000000 
-2651.477783 836.570801 1064.542969 -3.178728 2.495607 0.053290 0.361413 -1.659565 0.251691 0.347808 0.270959 -0.032613 0.350396 -0.297772 0.026314 -2.449682 -10.186784 6.247397 0.000000 0.000000 0.000000 1.995191 3.052031 1.099707 -0.428650 3.281929 -0.134189 1.055657 -3.891321 2.837450 0.000000 0.000000 0.000000 0.634342 2.755930 -1.770649 0.541286 2.730223 0.762155 -0.728447 -2.815221 -2.464129 0.000000 0.000000 0.000000 -4.917740 -3.037601 -1.684225 -4.917621 -0.567970 -0.623278 -4.749597 0.536748 -2.053842 0.000000 0.000000 0.000000 1.719611 -5.426880 -1.094953 1.892881 -0.074659 0.883068 2.099993 2.624401 0.428758 0.000000 0.000000 0.000000 
-2651.506348 836.400391 1064.521973 -3.165378 2.480846 0.056195 0.358697 -1.650863 0.262154 0.343897 0.270776 -0.035987 0.346870 -0.296216 0.028584 -2.449405 -10.194554 6.247370 0.000000 0.000000 0.000000 2.008287 3.045158 1.106448 -0.436346 3.275941 -0.169888 1.058408 -3.900345 2.846359 0.000000 0.000000 0.000000 0.635046 2.756752 -1.800590 0.547473 2.731472 0.792333 -0.728970 -2.819169 -2.465026 0.000000 0.000000 0.000000 -4.920890 -3.032728 -1.675945 -4.919070 -0.543513 -0.632509 -4.753151 0.515874 -2.056644 0.000000 0.000000 0.000000 1.716025 -5.418976 -1.082422 1.890657 -0.064363 0.878547 2.097056 2.626614 0.427006 0.000000 0.000000 0.000000 
-2651.548828 836.235474 1064.501953 -3.151081 2.464003 0.059792 0.356490 -1.636324 0.272247 0.340553 0.270176 -0.038588 0.343798 -0.293553 0.029930 -2.450342 -10.206607 6.250285 0.000000 0.000000 0.000000 2.024051 3.037926 1.113018 -0.444162 3.269900 -0.205883 1.061912 -3.912704 2.857132 0.000000 0.000000 0.000000 0.633219 2.754645 -1.832315 0.553865 2.730138 0.825100 -0.729341 -2.822105 -2.465581 0.000000 0.000000 0.000000 -4.923321 -3.026300 -1.666179 -4.919422 -0.519093 -0.647701 -4.756382 0.492935 -2.059401 0.000000 0.000000 0.000000 1.712815 -5.412937 -1.071814 1.888984 -0.047985 0.875900 2.094240 2.626751 0.425714 0.000000 0.000000 0.000000 
-2651.587402 836.082031 1064.480957 -3.138023 2.449673 0.063283 0.354758 -1.624690 0.284731 0.337467 0.268608 -0.041758 0.341065 -0.290660 0.031833 -2.449106 -10.217658 6.248480 0.000000 0.000000 0.000000 2.040308 3.030449 1.119301 -0.451796 3.263673 -0.241386 1.063592 -3.917644 2.863437 0.000000 0.000000 0.000000 0.631543 2.752526 -1.866707 0.559937 2.728734 0.856857 -0.728755 -2.821828 -2.462622 0.000000 0.000000 0.000000 -4.923764 -3.022647 -1.656741 -4.917568 -0.492540 -0.664833 -4.758040 0.460135 -2.062016 0.000000 0.000000 0.000000 1.710376 -5.408173 -1.061674 1.887996 -0.033678 0.873403 2.092247 2.627131 0.424745 0.000000 0.000000 0.000000 
-2651.612549 835.950256 1064.463013 -3.126996 2.441531 0.067400 0.353838 -1.623337 0.299931 0.335184 0.268855 -0.043124 0.338909 -0.288665 0.032314 -2.444254 -10.224130 6.238292 0.000000 0.000000 0.000000 2.054670 3.022469 1.127138 -0.459466 3.256664 -0.277812 1.061959 -3.908175 2.862274 0.000000 0.000000 0.000000 0.630326 2.750780 -1.906775 0.565674 2.727589 0.888072 -0.726253 -2.814317 -2.452976 0.000000 0.000000 0.000000 -4.920396 -3.024094 -1.648829 -4.911651 -0.465390 -0.685636 -4.756616 0.413305 -2.064045 0.000000 0.000000 0.000000 1.709793 -5.405929 -1.053269 1.888578 -0.025593 0.870450 2.092325 2.629946 0.424229 0.000000 0.000000 0.000000 
-2651.632812 835.830139 1064.444946 -3.117635 2.436043 0.071457 0.353193 -1.625303 0.316911 0.333125 0.268072 -0.043609 0.336886 -0.286532 0.032285 -2.437583 -10.228354 6.223981 0.000000 0.000000 0.000000 2.070995 3.014517 1.135241 -0.467170 3.249891 -0.314405 1.058661 -3.891564 2.857349 0.000000 0.000000 0.000000 0.630352 2.749295 -1.949107 0.571090 2.726498 0.918233 -0.722900 -2.803376 -2.440443 0.000000 0.000000 0.000000 -4.914829 -3.028322 -1.641517 -4.903367 -0.436512 -0.707961 -4.753394 0.357237 -2.065799 0.000000 0.000000 0.000000 1.710446 -5.404916 -1.045443 1.890289 -0.019855 0.867621 2.093697 2.633331 0.424183 0.000000 0.000000 0.000000 
-2651.654785 835.696777 1064.427002 -3.108416 2.430537 0.074513 0.352739 -1.629465 0.333661 0.331210 0.268708 -0.045068 0.335064 -0.285369 0.032199 -2.432279 -10.229550 6.212086 0.000000 0.000000 0.000000 2.084126 3.007336 1.144751 -0.474934 3.243502 -0.351095 1.056595 -3.879918 2.855329 0.000000 0.000000 0.000000 0.629390 2.748624 -1.988556 0.576729 2.726393 0.948467 -0.720356 -2.795080 -2.430913 0.000000 0.000000 0.000000 -4.911136 -3.037084 -1.635178 -4.897003 -0.398716 -0.723622 -4.751604 0.297595 -2.068415 0.000000 0.000000 0.000000 1.710070 -5.403903 -1.035339 1.891192 -0.014104 0.864002 2.094269 2.637213 0.423681 0.000000 0.000000 0.000000 
